# xmcd
# 
# Track frame offsets:
#     150
#     26964
#     48413
#     71282
#     94030
#     118385
#     140060
#     165380
#     190110
#     229993
# 
# Disc length: 3491
# 
# Revision: 3
# Processed by: cddbd v1.5.2PL0 Copyright (c) Steve Scherf et al.
# Submitted via: BonkEnc v1.0
# 
DISCID=8c0da10a
DTITLE=Sting - Brand New Day
DYEAR=1999
DGENRE=Jazz
TTITLE0=A Thousand Years
TTITLE1=Desert Rose
TTITLE2=Big Lie Small World
TTITLE3=Afetr the Rain Has Fallen
TTITLE4=Perfect Love...Gone Wrong
TTITLE5=Tommorow We'll See
TTITLE6=Fill Her Up
TTITLE7=Ghost Story
TTITLE8=Brand New Day
TTITLE9=EPK(Video)
EXTD=YEAR: 1999
EXTT0=
EXTT1=
EXTT2=
EXTT3=
EXTT4=
EXTT5=
EXTT6=
EXTT7=
EXTT8=
EXTT9=
PLAYORDER=
